<svg id="Capa_1" data-name="Capa 1" xmlns="http://www.w3.org/2000/svg" viewBox="0 0 110 200"><defs><style>.cls-1{font-size:16.28px;}.cls-1,.cls-4{fill:#fff;}.cls-1,.cls-2{font-family:OpenSans-ExtraBold, Open Sans;font-weight:800;}.cls-2{font-size:32.64px;fill:#e02310;}.cls-3{fill:none;stroke:#e02310;stroke-miterlimit:10;stroke-width:0.54px;}</style></defs><text class="cls-1" transform="translate(29.09 93.26)">APPLY</text><text class="cls-2" transform="translate(45.44 55.96)">1</text><rect class="cls-3" x="10.96" y="12.4" width="88.09" height="175.19" rx="10.03"/><path class="cls-4" d="M53.56,110.19H57.3a1.86,1.86,0,0,0,.39.1A27.56,27.56,0,0,1,68.08,113,29.65,29.65,0,0,1,84.93,135c.21,1.1.31,2.23.47,3.34V142a2.36,2.36,0,0,0-.1.38,27.68,27.68,0,0,1-2.72,10.39,29.64,29.64,0,0,1-21.94,16.85c-1.1.22-2.22.32-3.34.47H53.56a2.79,2.79,0,0,0-.39-.1,27.5,27.5,0,0,1-10.39-2.72,29.64,29.64,0,0,1-16.85-21.93c-.21-1.11-.31-2.23-.47-3.34v-3.75a2.79,2.79,0,0,0,.1-.39,27.78,27.78,0,0,1,2.72-10.39,29.65,29.65,0,0,1,21.94-16.84C51.32,110.45,52.44,110.35,53.56,110.19Zm26.38,30a24.51,24.51,0,1,0-24.57,24.48A24.57,24.57,0,0,0,79.94,140.19Z"/><path class="cls-4" d="M51.25,145l9.82-9.82c1.83-1.84,3.66-3.68,5.5-5.5a2.73,2.73,0,0,1,4.27.29,2.7,2.7,0,0,1-.08,3.17,8.17,8.17,0,0,1-.63.69L53.54,150.41c-1.54,1.54-3,1.54-4.56,0q-4.23-4.23-8.47-8.48a2.71,2.71,0,0,1,.05-4.2,2.65,2.65,0,0,1,3.35,0,10.05,10.05,0,0,1,.9.83Z"/></svg>