<svg id="Capa_1" data-name="Capa 1" xmlns="http://www.w3.org/2000/svg" viewBox="0 0 110 200"><defs><style>.cls-1,.cls-4{fill:#fff;}.cls-2,.cls-6{fill:none;stroke-miterlimit:10;}.cls-2{stroke:#fff;stroke-width:1.89px;}.cls-3,.cls-5{fill:#e02310;}.cls-4{font-size:16.28px;}.cls-4,.cls-5{font-family:OpenSans-ExtraBold, Open Sans;font-weight:800;}.cls-5{font-size:32.64px;}.cls-6{stroke:#e02310;stroke-width:0.54px;}</style></defs><rect class="cls-1" x="24.07" y="110.79" width="63.88" height="5.62"/><rect class="cls-1" x="31.05" y="107.9" width="3.58" height="11.58"/><rect class="cls-1" x="54.22" y="107.9" width="3.58" height="11.58"/><rect class="cls-1" x="77.97" y="107.9" width="3.58" height="11.58"/><rect class="cls-2" x="26.75" y="119.48" width="58.51" height="58.51" rx="5.43"/><polygon class="cls-3" points="47.66 146.12 54.34 145.35 57.01 139.19 53 133.79 46.33 134.56 43.66 140.73 47.66 146.12"/><polygon class="cls-3" points="66.36 146.12 59.68 145.35 57.01 139.19 61.02 133.79 67.69 134.56 70.36 140.73 66.36 146.12"/><polygon class="cls-3" points="69.22 159.26 62.81 157.21 61.38 150.65 66.36 146.12 72.76 148.17 74.19 154.74 69.22 159.26"/><polygon class="cls-3" points="44.8 159.26 51.2 157.21 52.63 150.65 47.66 146.12 41.26 148.17 39.83 154.74 44.8 159.26"/><polygon class="cls-3" points="56.99 167.3 62.81 163.94 62.81 157.21 56.99 153.85 51.2 157.21 51.17 163.94 56.99 167.3"/><text class="cls-4" transform="translate(23.37 91.8)">COLLAB</text><text class="cls-5" transform="translate(47.52 55.96)">2</text><rect class="cls-6" x="10.96" y="12.4" width="88.09" height="175.19" rx="10.03"/></svg>