<svg id="Capa_1" data-name="Capa 1" xmlns="http://www.w3.org/2000/svg" viewBox="0 0 110 200"><defs><style>.cls-1{font-size:16.28px;}.cls-1,.cls-4{fill:#fff;}.cls-1,.cls-2{font-family:OpenSans-ExtraBold, Open Sans;font-weight:800;}.cls-2{font-size:32.64px;fill:#e02310;}.cls-3{fill:none;stroke:#e02310;stroke-miterlimit:10;stroke-width:0.54px;}</style></defs><text class="cls-1" transform="translate(33.57 93.26)">EARN</text><text class="cls-2" transform="translate(46.84 57.91)">3</text><rect class="cls-3" x="10.96" y="12.4" width="88.09" height="175.19" rx="10.03"/><path class="cls-4" d="M85.15,136.86v8.69a6.8,6.8,0,0,1-2.51,3.64.64.64,0,0,0-.16.52c0,.61.19,1.22.19,1.84,0,2.16,0,4.32,0,6.49a5.11,5.11,0,0,1-1.59,3.84,14.75,14.75,0,0,1-5.38,3.21A51.72,51.72,0,0,1,60.9,168a72.79,72.79,0,0,1-11.72-.09,57.19,57.19,0,0,1-10.65-1.84,21.91,21.91,0,0,1-7.35-3.32,5.7,5.7,0,0,1-2.63-5.07c.08-1.68,0-3.38,0-5.07a16,16,0,0,1,.07-2.3A5.82,5.82,0,0,1,31,146.77a.9.9,0,0,0,.28-.63c0-.58-.19-1.15-.19-1.73,0-2.54,0-5.07,0-7.61a.69.69,0,0,0-.27-.47A7.39,7.39,0,0,1,27.33,132v-8.81a6.6,6.6,0,0,1,2.49-3.57,17.46,17.46,0,0,1,4.5-2.42,51.71,51.71,0,0,1,14.81-2.92,72.93,72.93,0,0,1,11.73.09,57.07,57.07,0,0,1,10.7,1.86,21.39,21.39,0,0,1,7.33,3.34c1.31,1,2.45,2.18,2.51,3.9.1,2.78,0,5.57,0,8.35a.68.68,0,0,0,.33.69A7,7,0,0,1,85.15,136.86Zm-30.76-5.42c3-.22,5.89-.39,8.83-.69a40.53,40.53,0,0,0,10.35-2.38A13.58,13.58,0,0,0,77.83,126c1.22-1.08,1.47-2.14.74-3.26a5.07,5.07,0,0,0-.79-.88,13.52,13.52,0,0,0-4.26-2.37,50.53,50.53,0,0,0-15.3-2.82,69.66,69.66,0,0,0-15.13.79A35.88,35.88,0,0,0,34,120a9.42,9.42,0,0,0-3.54,2.44,2,2,0,0,0,0,2.9,8,8,0,0,0,1.47,1.31,20.89,20.89,0,0,0,6.52,2.72A68.81,68.81,0,0,0,54.39,131.44Zm25.91,3a16.6,16.6,0,0,1-6,3.69A53.55,53.55,0,0,1,58.43,141a70.8,70.8,0,0,1-13.18-.45A46.09,46.09,0,0,1,34,137.92a3.19,3.19,0,0,0-.44-.13l-.11.11a9.92,9.92,0,0,0,.83,1.24,11.85,11.85,0,0,0,4.71,2.8,48,48,0,0,0,13.73,2.7A71,71,0,0,0,69.29,144a35.89,35.89,0,0,0,9.2-2.58,9.48,9.48,0,0,0,3.59-2.47,2.06,2.06,0,0,0-.09-3C81.47,135.38,80.87,134.92,80.3,134.42Zm-47.72,14c-.32.38-.64.75-.95,1.13a2,2,0,0,0-.12,2.73,5,5,0,0,0,.77.82,13.52,13.52,0,0,0,4.26,2.37,48.55,48.55,0,0,0,14,2.72,71.42,71.42,0,0,0,16.2-.67,36.52,36.52,0,0,0,9.3-2.59,9.53,9.53,0,0,0,3.6-2.46,1.94,1.94,0,0,0,.57-1.71c-.85.34-1.68.7-2.52,1A51.9,51.9,0,0,1,64,154.44,71.32,71.32,0,0,1,46,153.67C41.24,152.84,36.59,151.72,32.58,148.42Zm26.77-14.79v4.92l4.86-.5v-4.9Zm-6.22,18.45v-4.92l-4.86-.48v4.9Zm12.31,8.13-4.86.49v4.91l4.86-.5Zm-14.76.48-4.86-.47v4.9l4.86.49Zm-8.67-23a1.15,1.15,0,0,0,.08-.23c0-1,0-1.92,0-2.87,0-.6.17-1.36-.13-1.74s-1.06-.31-1.63-.44l-3.17-.73c0,1.54,0,3,0,4.54a.41.41,0,0,0,.24.3C38.94,136.89,40.47,137.27,42,137.66Zm28.4,13.55c1.62-.41,3.16-.79,4.7-1.2a.36.36,0,0,0,.19-.28c0-1.5,0-3,0-4.54l-4.9,1.11Zm-9.9-3.92H55.64v3.41c0,1.49,0,1.5,1.48,1.51h3.39Zm-17.2,12.54-4.88-1.1v4.82l4.88,1.17ZM58,165.7v-4.87H53.22v4.87ZM56.8,138.63v-4.87H52v4.87ZM63,152.08l4.49-.46c.3,0,.41-.16.41-.47,0-1,0-1.92,0-2.88v-1.59l-4.89.49Zm-13.6-13.53v-4.92l-4.87-.48c0,1.56,0,3,0,4.53,0,.13.24.37.38.39C46.44,138.25,47.91,138.39,49.43,138.55Zm-3.69,12.6v-4.86l-4.86-1.09c0,1.53,0,3,0,4.46a.56.56,0,0,0,.34.4c.62.2,1.25.38,1.89.53C44,150.79,44.84,151,45.74,151.15Zm27.08,7.59c-1.56.34-3.1.67-4.63,1a.51.51,0,0,0-.24.41c0,.75,0,1.5,0,2.25v2.3l4.89-1.18Zm-1.21-27.08c-1.28.29-2.5.57-3.72.83s-1.18.25-1.18,1.47v3.72c1.61-.41,3.13-.78,4.65-1.18a.52.52,0,0,0,.24-.37C71.61,134.67,71.61,133.21,71.61,131.66Zm7.32-3.18c-1.49.73-3,1.46-4.52,2.22a.7.7,0,0,0-.31.54c0,1.31,0,2.63,0,3.95a4.47,4.47,0,0,0,.06.49c1.24-.76,2.39-1.42,3.49-2.17a2.61,2.61,0,0,0,1.27-1.8C79,130.6,78.93,129.47,78.93,128.48ZM38.4,149.07c0-1.52,0-3,0-4.42,0-.15-.21-.36-.37-.44-1.1-.56-2.23-1.08-3.33-1.64-.39-.2-.74-.48-1.2-.78,0,1,0,1.79,0,2.63a2.85,2.85,0,0,0,.92,2.22A12.37,12.37,0,0,0,38.4,149.07Zm36.92,13.52A13.07,13.07,0,0,0,79,160.44a3.11,3.11,0,0,0,1.19-2.72c0-.63,0-1.27,0-1.91a.84.84,0,0,0,0-.26q-2.31,1.11-4.59,2.23a.5.5,0,0,0-.26.36C75.31,159.6,75.32,161.06,75.32,162.59Zm-44.26-7.05c0,1,0,2,0,3.05a2.15,2.15,0,0,0,.45,1.07,10.16,10.16,0,0,0,4.4,2.94c0-1.54,0-3,0-4.46a.5.5,0,0,0-.26-.36C34.13,157,32.6,156.28,31.06,155.54Zm46.72-6.4c.93-.5,1.78-.92,2.6-1.4,1.56-.92,2.59-2.15,2.31-4.12a11.15,11.15,0,0,1,0-1.63c-1.55.75-3.06,1.48-4.57,2.23-.14.07-.31.25-.31.38C77.77,146.06,77.78,147.53,77.78,149.14Zm-48-20.68c0,.77,0,1.63,0,2.5a2.67,2.67,0,0,0,.88,2.11,6.09,6.09,0,0,0,1,.87c.94.57,1.92,1.09,3,1.69,0-1.64,0-3.09,0-4.53a.49.49,0,0,0-.24-.37C32.91,130,31.37,129.22,29.8,128.46Z"/></svg>