<?xml version="1.0" encoding="utf-8"?>
<!-- Generator: Adobe Illustrator 27.0.0, SVG Export Plug-In . SVG Version: 6.00 Build 0)  -->
<svg version="1.1" id="Capa_1" xmlns="http://www.w3.org/2000/svg" xmlns:xlink="http://www.w3.org/1999/xlink" x="0px" y="0px"
	 viewBox="0 0 110 200" style="enable-background:new 0 0 110 200;" xml:space="preserve">
<style type="text/css">
	.st0{font-family:'Arial-BoldMT';}
	.st1{font-size:16.28px;}
	.st2{fill:#E02310;}
	.st3{font-size:32.64px;}
	.st4{fill:none;stroke:#E02310;stroke-width:0.54;stroke-miterlimit:10;}
</style>
<text transform="matrix(1 0 0 1 29.09 93.26)" class="st0 st1">APPLY</text>
<text transform="matrix(1 0 0 1 45.44 55.96)" class="st2 st0 st3">1</text>
<path class="st4" d="M21,12.4h68c5.5,0,10,4.5,10,10v155.1c0,5.5-4.5,10-10,10H21c-5.5,0-10-4.5-10-10V22.4
	C11,16.9,15.5,12.4,21,12.4z"/>
<path d="M53.6,110.2h3.7c0.1,0,0.3,0.1,0.4,0.1c3.6,0.2,7.1,1.1,10.4,2.7c8.9,4.1,15.2,12.3,16.8,22c0.2,1.1,0.3,2.2,0.5,3.3v3.7
	c0,0.1-0.1,0.3-0.1,0.4c-0.2,3.6-1.1,7.1-2.7,10.4c-4.1,8.9-12.3,15.2-21.9,16.9c-1.1,0.2-2.2,0.3-3.3,0.5h-3.7
	c-0.1,0-0.3-0.1-0.4-0.1c-3.6-0.2-7.1-1.1-10.4-2.7c-8.9-4.1-15.2-12.3-16.9-21.9c-0.2-1.1-0.3-2.2-0.5-3.3v-3.8
	c0-0.1,0.1-0.3,0.1-0.4c0.2-3.6,1.1-7.1,2.7-10.4c4.1-8.9,12.3-15.2,21.9-16.8C51.3,110.4,52.4,110.3,53.6,110.2z M79.9,140.2
	c0-13.5-10.9-24.5-24.5-24.5c-13.5,0-24.5,10.9-24.5,24.5c0,13.5,10.9,24.5,24.4,24.5C68.9,164.7,79.9,153.7,79.9,140.2z"/>
<path d="M51.2,145l9.8-9.8c1.8-1.8,3.7-3.7,5.5-5.5c1-1.1,2.7-1.2,3.9-0.2c0.2,0.1,0.3,0.3,0.4,0.5c0.7,1,0.6,2.2-0.1,3.2
	c-0.2,0.2-0.4,0.5-0.6,0.7l-16.6,16.6c-1.5,1.5-3,1.5-4.6,0c-2.8-2.8-5.6-5.6-8.5-8.5c-1.1-1-1.3-2.7-0.3-3.8
	c0.1-0.1,0.2-0.3,0.4-0.4c1-0.8,2.4-0.8,3.3,0c0.3,0.3,0.6,0.5,0.9,0.8L51.2,145z"/>
</svg>
