<?xml version="1.0" encoding="UTF-8"?><svg id="Capa_1" xmlns="http://www.w3.org/2000/svg" viewBox="0 0 100.34 100.06"><defs><style>.cls-1{fill:#777070;}</style></defs><rect class="cls-1" x="59.3" y=".56" width="40" height=".33"/><rect class="cls-1" x="-24.8" y="73.77" width="51.21" height=".33" transform="translate(-73.13 74.73) rotate(-90)"/><rect class="cls-1" x="1.04" y="99.17" width="40" height=".33" transform="translate(42.07 198.66) rotate(180)"/><rect class="cls-1" x="73.93" y="25.96" width="51.21" height=".33" transform="translate(125.66 -73.41) rotate(90)"/><rect x="32.37" y=".06" width="30.5" height="1.34" transform="translate(95.25 1.45) rotate(180)"/><rect x="-16.27" y="39.56" width="34.14" height="1.33" transform="translate(-39.42 41.02) rotate(-90)"/><polygon points="0 22.98 32.85 0 33.6 1.24 .75 24.21 0 22.98"/><rect x="37.46" y="98.66" width="30.5" height="1.34"/><polygon points="100.34 77.08 67.49 100.06 66.74 98.82 99.59 75.84 100.34 77.08"/><rect x="82.47" y="59.17" width="34.14" height="1.33" transform="translate(159.37 -39.7) rotate(90)"/></svg>