<svg id="Capa_1" data-name="Capa 1" xmlns="http://www.w3.org/2000/svg" viewBox="0 0 838.16 440.17"><defs><style>.cls-1{font-size:23px;}.cls-1,.cls-7{font-family:OpenSans-ExtraBold, Open Sans;font-weight:800;}.cls-2,.cls-4,.cls-5{fill:none;stroke-miterlimit:10;}.cls-2{stroke:#000;stroke-width:5.67px;}.cls-3,.cls-7{fill:#e02310;}.cls-4,.cls-5{stroke:#e02310;stroke-width:1.34px;}.cls-5{stroke-dasharray:3.82 3.82;}.cls-6{fill:#605e5e;}.cls-7{font-size:16px;}</style></defs><text class="cls-1" transform="translate(93.45 144.14)">YOUR<tspan x="-31.09" y="27.6">PROJECT</tspan></text><text class="cls-1" transform="translate(684.81 255.9)">WEB3<tspan x="0" y="27.6">PROJECT</tspan></text><polyline class="cls-2" points="157 190.94 416.05 61.4 563.21 140.81 281.55 292.49 424.62 377.85 682.9 221.52"/><circle cx="157" cy="191.93" r="6.85"/><circle cx="682.91" cy="221.52" r="6.85"/><polygon class="cls-3" points="412.32 47.73 397.12 56.41 397.04 73.91 412.15 82.73 427.26 74.05 427.43 56.55 412.32 47.73"/><line class="cls-4" x1="417.24" y1="65.02" x2="419.25" y2="65.02"/><line class="cls-5" x1="423.07" y1="65.02" x2="474.6" y2="65.02"/><line class="cls-4" x1="476.51" y1="65.02" x2="478.52" y2="65.02"/><circle cx="478.52" cy="64.58" r="2.31"/><polygon class="cls-3" points="424.67 359.55 409.47 368.23 409.38 385.73 424.5 394.55 439.61 385.87 439.78 368.37 424.67 359.55"/><line class="cls-4" x1="429.58" y1="376.84" x2="431.59" y2="376.84"/><line class="cls-5" x1="435.41" y1="376.84" x2="486.94" y2="376.84"/><line class="cls-4" x1="488.85" y1="376.84" x2="490.86" y2="376.84"/><circle cx="490.86" cy="376.4" r="2.31"/><polygon class="cls-3" points="563.15 121.95 547.95 130.63 547.87 148.13 562.98 156.95 578.1 148.27 578.26 130.77 563.15 121.95"/><polygon class="cls-6" points="284.66 108.17 269.46 116.84 269.37 134.34 284.49 143.17 299.6 134.49 299.77 116.99 284.66 108.17"/><polygon class="cls-6" points="424.65 197.17 409.45 205.85 409.37 223.35 424.48 232.17 439.6 223.49 439.76 205.99 424.65 197.17"/><polygon class="cls-6" points="552.63 281.91 537.43 290.59 537.35 308.09 552.46 316.91 567.57 308.24 567.74 290.74 552.63 281.91"/><line class="cls-4" x1="568.07" y1="139.25" x2="570.08" y2="139.25"/><line class="cls-5" x1="573.9" y1="139.25" x2="625.44" y2="139.25"/><line class="cls-4" x1="627.35" y1="139.25" x2="629.35" y2="139.25"/><circle cx="629.35" cy="138.8" r="2.31"/><polygon class="cls-3" points="281.22 308.98 296.46 300.38 296.63 282.88 281.56 273.98 266.4 282.58 266.15 300.08 281.22 308.98"/><line class="cls-4" x1="276.38" y1="291.66" x2="274.37" y2="291.65"/><line class="cls-5" x1="270.55" y1="291.63" x2="219.02" y2="291.38"/><line class="cls-4" x1="217.11" y1="291.37" x2="215.1" y2="291.36"/><circle cx="215.1" cy="291.81" r="2.31"/><text class="cls-7" transform="translate(640.88 132.24)">YOUR WEB3<tspan x="0" y="19.2">GAMEPLAN</tspan></text><text class="cls-7" transform="translate(489.28 59.33)">PROJECT<tspan x="0" y="19.2">ANALYSIS</tspan></text><text class="cls-7" transform="translate(501.48 383.33)">GO-TO-MARKET</text><text class="cls-7" transform="translate(97.32 288.55)">BLOCKCHAIN<tspan x="-41.63" y="19.2">IMPLEMENTATION</tspan></text></svg>