<?xml version="1.0" encoding="utf-8"?>
<!-- Generator: Adobe Illustrator 27.0.0, SVG Export Plug-In . SVG Version: 6.00 Build 0)  -->
<svg version="1.1" id="Capa_1" xmlns="http://www.w3.org/2000/svg" xmlns:xlink="http://www.w3.org/1999/xlink" x="0px" y="0px"
	 viewBox="0 0 110 200" style="enable-background:new 0 0 110 200;" xml:space="preserve">
<style type="text/css">
	.st0{fill:none;stroke:#000000;stroke-width:1.89;stroke-miterlimit:10;}
	.st1{fill:#E02310;}
	.st2{font-family:'Arial-BoldMT';}
	.st3{font-size:16.28px;}
	.st4{font-size:32.64px;}
	.st5{fill:none;stroke:#E02310;stroke-width:0.54;stroke-miterlimit:10;}
</style>
<rect x="24.1" y="110.8" width="63.9" height="5.6"/>
<rect x="31" y="107.9" width="3.6" height="11.6"/>
<rect x="54.2" y="107.9" width="3.6" height="11.6"/>
<rect x="78" y="107.9" width="3.6" height="11.6"/>
<path class="st0" d="M32.2,119.5h47.6c3,0,5.4,2.4,5.4,5.4v47.7c0,3-2.4,5.4-5.4,5.4H32.2c-3,0-5.4-2.4-5.4-5.4v-47.7
	C26.8,121.9,29.2,119.5,32.2,119.5z"/>
<polygon class="st1" points="47.7,146.1 54.3,145.4 57,139.2 53,133.8 46.3,134.6 43.7,140.7 "/>
<polygon class="st1" points="66.4,146.1 59.7,145.4 57,139.2 61,133.8 67.7,134.6 70.4,140.7 "/>
<polygon class="st1" points="69.2,159.3 62.8,157.2 61.4,150.6 66.4,146.1 72.8,148.2 74.2,154.7 "/>
<polygon class="st1" points="44.8,159.3 51.2,157.2 52.6,150.6 47.7,146.1 41.3,148.2 39.8,154.7 "/>
<polygon class="st1" points="57,167.3 62.8,163.9 62.8,157.2 57,153.9 51.2,157.2 51.2,163.9 "/>
<text transform="matrix(1 0 0 1 23.37 91.8)" class="st2 st3">COLLAB</text>
<text transform="matrix(1 0 0 1 47.52 55.96)" class="st1 st2 st4">2</text>
<path class="st5" d="M21,12.4h68c5.5,0,10,4.5,10,10v155.1c0,5.5-4.5,10-10,10H21c-5.5,0-10-4.5-10-10V22.4
	C11,16.9,15.5,12.4,21,12.4z"/>
</svg>
