<?xml version="1.0" encoding="utf-8"?>
<!-- Generator: Adobe Illustrator 27.0.0, SVG Export Plug-In . SVG Version: 6.00 Build 0)  -->
<svg version="1.1" id="Capa_1" xmlns="http://www.w3.org/2000/svg" xmlns:xlink="http://www.w3.org/1999/xlink" x="0px" y="0px"
	 viewBox="0 0 110 200" style="enable-background:new 0 0 110 200;" xml:space="preserve">
<style type="text/css">
	.st0{font-family:'Arial-BoldMT';}
	.st1{font-size:16.28px;}
	.st2{fill:#E02310;}
	.st3{font-size:32.64px;}
	.st4{fill:none;stroke:#E02310;stroke-width:0.54;stroke-miterlimit:10;}
</style>
<text transform="matrix(1 0 0 1 33.57 93.26)" class="st0 st1">EARN</text>
<text transform="matrix(1 0 0 1 46.84 57.91)" class="st2 st0 st3">3</text>
<path class="st4" d="M21,12.4h68c5.5,0,10,4.5,10,10v155.1c0,5.5-4.5,10-10,10H21c-5.5,0-10-4.5-10-10V22.4
	C11,16.9,15.5,12.4,21,12.4z"/>
<path d="M85.2,136.9v8.7c-0.4,1.5-1.3,2.7-2.5,3.6c-0.1,0.1-0.2,0.3-0.2,0.5c0,0.6,0.2,1.2,0.2,1.8c0,2.2,0,4.3,0,6.5
	c0,1.4-0.5,2.8-1.6,3.8c-1.5,1.4-3.4,2.5-5.4,3.2c-4.8,1.7-9.8,2.7-14.8,2.9c-3.9,0.3-7.8,0.3-11.7-0.1c-3.6-0.3-7.2-0.9-10.7-1.8
	c-2.6-0.6-5.1-1.8-7.4-3.3c-1.7-1.1-2.7-3-2.6-5.1c0.1-1.7,0-3.4,0-5.1c0-0.8,0-1.5,0.1-2.3c0.3-1.4,1.2-2.7,2.4-3.5
	c0.2-0.2,0.3-0.4,0.3-0.6c0-0.6-0.2-1.1-0.2-1.7c0-2.5,0-5.1,0-7.6c0-0.2-0.1-0.4-0.3-0.5c-1.7-0.9-2.9-2.5-3.5-4.3v-8.8
	c0.4-1.4,1.3-2.7,2.5-3.6c1.4-1,2.9-1.8,4.5-2.4c4.8-1.7,9.8-2.7,14.8-2.9c3.9-0.3,7.8-0.3,11.7,0.1c3.6,0.3,7.2,0.9,10.7,1.9
	c2.6,0.6,5.1,1.8,7.3,3.3c1.3,1,2.4,2.2,2.5,3.9c0.1,2.8,0,5.6,0,8.4c0,0.3,0.1,0.5,0.3,0.7C83.4,133.4,84.7,135,85.2,136.9z
	 M54.4,131.4c3-0.2,5.9-0.4,8.8-0.7c3.5-0.3,7-1.1,10.3-2.4c1.6-0.5,3-1.3,4.3-2.4c1.2-1.1,1.5-2.1,0.7-3.3
	c-0.2-0.3-0.5-0.6-0.8-0.9c-1.3-1-2.7-1.8-4.3-2.4c-4.9-1.7-10.1-2.7-15.3-2.8c-5.1-0.3-10.1,0-15.1,0.8c-3.1,0.4-6.2,1.3-9.1,2.5
	c-1.4,0.5-2.6,1.4-3.5,2.4c-0.8,0.8-0.8,2-0.1,2.8c0,0,0,0,0.1,0.1c0.4,0.5,0.9,0.9,1.5,1.3c2,1.3,4.2,2.2,6.5,2.7
	C43.7,130.7,49,131.4,54.4,131.4z M80.3,134.4c-1.7,1.6-3.8,2.9-6,3.7c-5.1,1.8-10.5,2.7-15.9,2.9c-4.4,0.3-8.8,0.1-13.2-0.4
	c-3.8-0.4-7.6-1.3-11.2-2.6c-0.1-0.1-0.3-0.1-0.4-0.1l-0.1,0.1c0.2,0.4,0.5,0.8,0.8,1.2c1.3,1.3,2.9,2.2,4.7,2.8
	c4.4,1.6,9,2.5,13.7,2.7c5.5,0.4,11.1,0.2,16.6-0.6c3.2-0.4,6.3-1.3,9.2-2.6c1.4-0.5,2.6-1.4,3.6-2.5c0.8-0.8,0.8-2.1,0-2.9
	c0,0-0.1-0.1-0.1-0.1C81.5,135.4,80.9,134.9,80.3,134.4L80.3,134.4z M32.6,148.4c-0.3,0.4-0.6,0.8-1,1.1c-0.8,0.7-0.8,1.9-0.1,2.7
	c0.2,0.3,0.5,0.6,0.8,0.8c1.3,1,2.7,1.8,4.3,2.4c4.5,1.6,9.2,2.5,14,2.7c5.4,0.4,10.8,0.2,16.2-0.7c3.2-0.4,6.3-1.3,9.3-2.6
	c1.4-0.5,2.6-1.4,3.6-2.5c0.5-0.4,0.7-1.1,0.6-1.7c-0.8,0.3-1.7,0.7-2.5,1c-4.4,1.5-9,2.4-13.7,2.7c-6,0.5-12.1,0.2-18-0.8
	C41.2,152.8,36.6,151.7,32.6,148.4L32.6,148.4z M59.4,133.7v4.9l4.9-0.5v-4.9L59.4,133.7z M53.1,152.1v-4.9l-4.9-0.5v4.9L53.1,152.1
	z M65.4,160.2l-4.9,0.5v4.9l4.9-0.5V160.2z M50.7,160.7l-4.9-0.5v4.9l4.9,0.5V160.7z M42,137.7c0-0.1,0.1-0.2,0.1-0.2
	c0-1,0-1.9,0-2.9c0-0.6,0.2-1.4-0.1-1.7s-1.1-0.3-1.6-0.4l-3.2-0.7c0,1.5,0,3,0,4.5c0,0.1,0.1,0.2,0.2,0.3
	C38.9,136.9,40.5,137.3,42,137.7L42,137.7z M70.4,151.3c1.6-0.4,3.2-0.8,4.7-1.2c0.1-0.1,0.2-0.2,0.2-0.3c0-1.5,0-3,0-4.5l-4.9,1.1
	L70.4,151.3z M60.5,147.3h-4.9v3.4c0,1.5,0,1.5,1.5,1.5h3.4L60.5,147.3z M43.3,159.9l-4.9-1.1v4.8l4.9,1.2V159.9z M58,165.7v-4.9
	h-4.8v4.9H58z M56.8,138.6v-4.9H52v4.9H56.8z M63,152.1l4.5-0.5c0.3,0,0.4-0.2,0.4-0.5c0-1,0-1.9,0-2.9v-1.6l-4.9,0.5L63,152.1z
	 M49.4,138.6v-4.9l-4.9-0.5c0,1.6,0,3,0,4.5c0,0.1,0.2,0.4,0.4,0.4C46.4,138.2,47.9,138.4,49.4,138.6L49.4,138.6z M45.7,151.2v-4.9
	l-4.9-1.1c0,1.5,0,3,0,4.5c0,0.2,0.2,0.3,0.3,0.4c0.6,0.2,1.2,0.4,1.9,0.5C44,150.8,44.8,151,45.7,151.2L45.7,151.2z M72.8,158.7
	c-1.6,0.3-3.1,0.7-4.6,1c-0.1,0.1-0.2,0.2-0.2,0.4c0,0.8,0,1.5,0,2.2v2.3l4.9-1.2L72.8,158.7z M71.6,131.7c-1.3,0.3-2.5,0.6-3.7,0.8
	s-1.2,0.2-1.2,1.5v3.7c1.6-0.4,3.1-0.8,4.7-1.2c0.1-0.1,0.2-0.2,0.2-0.4C71.6,134.7,71.6,133.2,71.6,131.7L71.6,131.7z M78.9,128.5
	c-1.5,0.7-3,1.5-4.5,2.2c-0.2,0.1-0.3,0.3-0.3,0.5c0,1.3,0,2.6,0,3.9c0,0.2,0,0.3,0.1,0.5c1.2-0.8,2.4-1.4,3.5-2.2
	c0.7-0.4,1.1-1,1.3-1.8C79,130.6,78.9,129.5,78.9,128.5L78.9,128.5z M38.4,149.1c0-1.5,0-3,0-4.4c0-0.1-0.2-0.4-0.4-0.4
	c-1.1-0.6-2.2-1.1-3.3-1.6c-0.4-0.2-0.7-0.5-1.2-0.8c0,1,0,1.8,0,2.6c0,0.8,0.3,1.7,0.9,2.2C35.6,147.7,36.9,148.5,38.4,149.1z
	 M75.3,162.6c1.3-0.5,2.6-1.2,3.7-2.2c0.8-0.6,1.3-1.7,1.2-2.7c0-0.6,0-1.3,0-1.9c0-0.1,0-0.2,0-0.3c-1.5,0.7-3.1,1.5-4.6,2.2
	c-0.1,0.1-0.2,0.2-0.3,0.4C75.3,159.6,75.3,161.1,75.3,162.6L75.3,162.6z M31.1,155.5c0,1,0,2,0,3.1c0,0.4,0.2,0.8,0.5,1.1
	c1.2,1.4,2.7,2.4,4.4,2.9c0-1.5,0-3,0-4.5c0-0.2-0.1-0.3-0.3-0.4C34.1,157,32.6,156.3,31.1,155.5L31.1,155.5z M77.8,149.1
	c0.9-0.5,1.8-0.9,2.6-1.4c1.6-0.9,2.6-2.1,2.3-4.1c0-0.5,0-1.1,0-1.6c-1.6,0.8-3.1,1.5-4.6,2.2c-0.1,0.1-0.3,0.2-0.3,0.4
	C77.8,146.1,77.8,147.5,77.8,149.1L77.8,149.1z M29.8,128.5c0,0.8,0,1.6,0,2.5c0,0.8,0.3,1.6,0.9,2.1c0.3,0.3,0.6,0.6,1,0.9
	c0.9,0.6,1.9,1.1,3,1.7c0-1.6,0-3.1,0-4.5c0-0.2-0.1-0.3-0.2-0.4C32.9,130,31.4,129.2,29.8,128.5L29.8,128.5z"/>
</svg>
