<svg id="Capa_1" data-name="Capa 1" xmlns="http://www.w3.org/2000/svg" viewBox="0 0 200 200"><path d="M136.18,123.79a77.29,77.29,0,0,1-22.49,6.38c-3,.39-6,.61-8.71.8h-.09a66.37,66.37,0,0,1-14.27,12.85,35.8,35.8,0,0,1-10.4,4.72L74.8,150l3.91-4.82c3.78-4.65,5.69-10.23,6.94-14.56,0-.14.08-.29.11-.44h0s-.09,0-.29-.1l-2.77-.53c-1.7-.32-3.45-.65-5.18-1.07-9.94-2.46-18.18-6.11-25.2-11.16-6.62-4.77-11.07-10-13.6-16-3.44-8.19-2.82-16.4,1.83-24.4C44.31,70.42,50,65.09,57.86,60.59a77.27,77.27,0,0,1,26.23-9,97.13,97.13,0,0,1,19.4-1.09c15.41.64,28.54,4.34,40.13,11.33,6.74,4.06,11.63,8.7,15,14.18,6.29,10.33,5.91,20.78-1.15,31.05-4.17,6.07-10.09,11-18.12,15.17Q137.77,123.06,136.18,123.79Zm-31.77,2.54a8.59,8.59,0,0,1,3-.76c2.66-.18,5.52-.39,8.34-.76a69,69,0,0,0,22.92-7c6.34-3.27,10.94-7.07,14.06-11.61,5.68-8.27,5.78-17,.29-26-3.13-5.14-7.75-9.51-14.13-13.35-11.12-6.7-23.7-10.26-38.45-10.87a92.47,92.47,0,0,0-18.28,1,68.65,68.65,0,0,0-23.31,7.9c-6.21,3.54-10.43,7.47-13.28,12.38a21.74,21.74,0,0,0-1.16,20.28c2.35,5.58,6.52,10.48,12.76,15a68.94,68.94,0,0,0,24.16,10.69c1.62.4,3.33.72,5,1,1,.17,1.89.35,2.83.54a2.92,2.92,0,0,1,2.44,3.83c-.06.26-.13.51-.2.77a55,55,0,0,1-4.84,12c.83-.43,1.65-.92,2.48-1.46a56.68,56.68,0,0,0,12.2-11.13A9.19,9.19,0,0,1,104.41,126.33Zm.13,4.7Z"/><polygon points="135.72 92.82 56.63 87.82 61.04 80.17 140.13 85.18 135.72 92.82"/><polygon points="110.05 107.02 77.9 104.65 82.38 97.01 114.53 99.38 110.05 107.02"/></svg>