<svg id="Capa_1" data-name="Capa 1" xmlns="http://www.w3.org/2000/svg" viewBox="0 0 200 200"><path d="M30.5,100.21c1.16-3.4,3.58-4.86,7.11-4.57.4,0,.81,0,1.21,0A2.92,2.92,0,0,0,42,92.57c0-.9,0-1.8,0-2.69A11.47,11.47,0,0,1,53.62,78.45q21.84,0,43.67,0,23.79,0,47.57,0a11.5,11.5,0,0,1,11.56,9.29,15.33,15.33,0,0,1,.21,2.8c0,4.71.41,5.08,5.18,5.11a8.84,8.84,0,0,1,2,.2,5.53,5.53,0,0,1,4.31,5.34q.06,11.63,0,23.25a5.65,5.65,0,0,1-5.57,5.6c-.89,0-1.79,0-2.68,0a3,3,0,0,0-3.22,3.16,32.8,32.8,0,0,1-.33,5.07,11.34,11.34,0,0,1-11,9q-8.79.07-17.6,0a23,23,0,0,1-13.93-4.9q-4.12-3.12-8.27-6.21c-4.14-3.07-8.33-3-12.48.06-3.11,2.33-6.2,4.7-9.37,7A21.79,21.79,0,0,1,71,147.23q-8.8.09-17.6,0A11.47,11.47,0,0,1,42,136.08c0-1,0-2,0-3a2.92,2.92,0,0,0-3.16-3.08,9.79,9.79,0,0,0-1.21,0c-3.53.28-5.95-1.18-7.11-4.58Z"/><path d="M99.31,67c-3.67,0-7.34,0-11,0-3.87,0-6.17-2.33-6.18-6.2q0-5.31,0-10.62a5.72,5.72,0,0,1,6-6.08q11.15,0,22.31,0a5.71,5.71,0,0,1,6,6.08c0,3.58,0,7.17,0,10.75a5.68,5.68,0,0,1-6,6.07C106.75,67,103,67,99.31,67Z"/></svg>