<svg id="Capa_1" data-name="Capa 1" xmlns="http://www.w3.org/2000/svg" viewBox="0 0 200 200"><path d="M150.83,138.69l-2.92-3.09,0,0a1.51,1.51,0,0,1-1.17-.67c-.56-.68-1.45-1-.8-2.34,4-7.88,2.61-16-3.62-22.27q-7.11-7.14-14.25-14.26c-6.27-6.24-14.36-7.61-22.26-3.64-1.28.64-1.68-.18-2.36-.78a1.4,1.4,0,0,1-.46-2,18.34,18.34,0,0,0-3.34-22c-4.88-5-9.82-9.86-14.75-14.77a18.48,18.48,0,0,0-9.08-5.11,18.74,18.74,0,0,0-13,1.67c-.39.19-1.15.3-1.37.08-2-2-3.9-4-5.83-6h-.28l-7.07,6.79c2.09,2.05,3.85,3.85,5.7,5.57A1.52,1.52,0,0,1,54.32,58a18.31,18.31,0,0,0,3.15,21.52Q65.09,87.38,72.94,95A18.27,18.27,0,0,0,94.45,98.1a1.49,1.49,0,0,1,2.16.39c.64.74,1.37,1.2.7,2.49a18.2,18.2,0,0,0,3.11,21.51C105.53,127.75,110.67,133,116,138c5.93,5.62,12.88,6.52,20.38,3.57,2.48-1,2.45-1,4.27,1a.82.82,0,0,1,.1.26l3,2.95ZM95.05,83,89.73,77.5l-7.22,7.2,5.83,5.43a8.94,8.94,0,0,1-7.55-1.2,10,10,0,0,1-1.4-1.21L64.73,73.08a8.93,8.93,0,0,1-2.47-8.84c.73.69,1.34,1.25,1.85,1.74l6.83-6.85-1.7-1.8a8.47,8.47,0,0,1,7.47,1.3,18.2,18.2,0,0,1,2.12,1.91c4.62,4.61,9.21,9.24,13.85,13.83A8.44,8.44,0,0,1,95.05,83Zm43.15,42.81-5.29-5.35-7.37,7.35,5.56,5.34a9.05,9.05,0,0,1-8.84-2.57q-7.26-7.29-14.55-14.55a8.77,8.77,0,0,1-2.57-8.49l5.35,5.35,7.3-7.34-5.54-5.33a8.36,8.36,0,0,1,7.51,1.42,38.33,38.33,0,0,1,3.53,3.34q6.18,6.15,12.34,12.32A8.81,8.81,0,0,1,138.2,125.84Z"/></svg>