<svg id="Capa_1" data-name="Capa 1" xmlns="http://www.w3.org/2000/svg" viewBox="0 0 200 200"><path d="M107.08,146.5a20.9,20.9,0,0,1-2.36-1.79c-4.83-4.77-9.61-9.58-14.41-14.38-.28-.28-.55-.58-.88-.92l18.27-8.61c1.52-.71,3-1.39,4.54-2.14a.91.91,0,0,1,1.25.19c3,3.08,6.12,6.11,9.15,9.19a3.32,3.32,0,0,1,0,5.05q-6.11,6.15-12.26,12.25a10.45,10.45,0,0,1-1.73,1.16Z"/><path d="M84.16,124.4c-.38-.44-.78-1-1.25-1.46q-8.49-8.5-17-17a1.16,1.16,0,0,1-.27-1.6q14-29.58,27.85-59.16c1.32-2.81,3.82-3.24,6-1.05q23,23,46,46c2.13,2.13,1.7,4.67-1,6L84.69,124.21C84.6,124.26,84.49,124.28,84.16,124.4Z"/><path d="M79.45,129.3c-1.75,1.74-3.56,3.58-5.4,5.36a3.3,3.3,0,0,1-4.89,0q-7.12-7.1-14.22-14.23a3.25,3.25,0,0,1,0-4.79c1.81-1.88,3.67-3.7,5.42-5.47C66.69,116.54,73,122.87,79.45,129.3Z"/></svg>