<svg id="Capa_1" data-name="Capa 1" xmlns="http://www.w3.org/2000/svg" viewBox="0 0 631.35 601.52"><defs><style>.cls-1{font-size:23px;}.cls-1,.cls-6{font-family:OpenSans-ExtraBold, Open Sans;font-weight:800;}.cls-2,.cls-4,.cls-5{fill:none;stroke-miterlimit:10;}.cls-2{stroke:#000;stroke-width:5.25px;}.cls-3,.cls-6{fill:#e02310;}.cls-4,.cls-5{stroke:#e02310;stroke-width:1.31px;}.cls-5{stroke-dasharray:3.74 3.74;}.cls-6{font-size:16px;}</style></defs><text class="cls-1" transform="translate(461.87 106.51)">YOUR<tspan x="0" y="27.6">BRAND</tspan></text><text class="cls-1" transform="translate(131.62 480.86)">YOUR<tspan x="-45.97" y="27.6">BUSINESS</tspan></text><polyline class="cls-2" points="191.47 444.87 191.47 417.09 221.43 417.09 221.43 388.69 253.89 388.69 253.89 358.42 283.23 358.42 283.23 330.82 314.13 330.82 314.13 299.12 343.78 299.12 343.78 271.65 374.05 271.65 374.05 242 404.01 242 404.01 212.81 435.22 212.81 435.22 182.83 466.43 182.83 466.43 152.74"/><circle cx="466.43" cy="154.51" r="6.72"/><circle cx="191.47" cy="444.87" r="6.72"/><polygon class="cls-3" points="348.6 258.62 337.19 265.13 337.13 278.26 348.47 284.89 359.81 278.37 359.94 265.24 348.6 258.62"/><line class="cls-4" x1="282.08" y1="271.75" x2="284.05" y2="271.75"/><line class="cls-5" x1="287.8" y1="271.75" x2="338.33" y2="271.75"/><line class="cls-4" x1="340.2" y1="271.75" x2="342.17" y2="271.75"/><circle cx="282.63" cy="271.75" r="2.26"/><polygon class="cls-3" points="436.75 170.57 425.34 177.08 425.28 190.21 436.62 196.83 447.96 190.32 448.09 177.19 436.75 170.57"/><line class="cls-4" x1="370.23" y1="183.7" x2="372.2" y2="183.7"/><line class="cls-5" x1="375.95" y1="183.7" x2="426.48" y2="183.7"/><line class="cls-4" x1="428.35" y1="183.7" x2="430.32" y2="183.7"/><circle cx="370.78" cy="183.7" r="2.26"/><polygon class="cls-3" points="318.11 346.84 329.58 340.44 329.77 327.3 318.49 320.57 307.09 326.97 306.83 340.11 318.11 346.84"/><line class="cls-4" x1="384.75" y1="334.35" x2="382.78" y2="334.33"/><line class="cls-5" x1="379.04" y1="334.29" x2="328.51" y2="333.8"/><line class="cls-4" x1="326.64" y1="333.78" x2="324.67" y2="333.76"/><circle cx="384.2" cy="334.34" r="2.26"/><polygon class="cls-3" points="221.86 432.48 233.33 426.08 233.52 412.95 222.24 406.22 210.84 412.62 210.58 425.75 221.86 432.48"/><line class="cls-4" x1="288.5" y1="419.99" x2="286.53" y2="419.97"/><line class="cls-5" x1="282.78" y1="419.94" x2="232.26" y2="419.45"/><line class="cls-4" x1="230.38" y1="419.43" x2="228.41" y2="419.41"/><circle cx="287.95" cy="419.99" r="2.26"/><text class="cls-6" transform="translate(282.83 178.97)">CONTENT<tspan x="-5.22" y="19.2">CREATION</tspan></text><text class="cls-6" transform="translate(215.44 270.51)">BRAND<tspan x="-16.23" y="19.2">IDENTITY</tspan></text><text class="cls-6" transform="translate(391.63 331)">TREND<tspan x="0" y="19.2">ANALYSIS</tspan></text><text class="cls-6" transform="translate(297.59 426.81)">NEW PLAN</text></svg>