<?xml version="1.0" encoding="UTF-8"?>
<svg id="Layer_2" data-name="Layer 2" xmlns="http://www.w3.org/2000/svg" viewBox="0 0 336.96 110.65">
  <defs>
    <style>
      .cls-1 {
        fill: #fff;
      }

      .cls-2 {
        fill: #ff025c;
      }
    </style>
  </defs>
  <g id="Capa_1" data-name="Capa 1">
    <g>
      <g>
        <path class="cls-1" d="M39.87,71.11l-7.62,16.84c-.54,1.17-1.38,2.17-2.53,2.98-1.15,.82-2.26,1.22-3.33,1.22h-2.87l-2.26-13.05-6.85,13.05h-2.87c-1.07,0-2.04-.41-2.91-1.22-.87-.82-1.35-1.81-1.45-2.98l-1.68-16.84h6.81l1.22,12.13,6.35-12.13h5.59l2.07,12.13,5.51-12.13h6.81Z"/>
        <path class="cls-1" d="M49.67,76.73l-.34,2.1h14.01l-.99,5.59h-14.01l-.38,2.1h16.95l-.96,5.63h-19.59c-1.07,0-1.92-.41-2.54-1.22-.63-.82-.84-1.81-.63-2.98l2.22-12.63c.2-1.17,.77-2.17,1.68-2.98,.92-.82,1.91-1.22,2.98-1.22h19.59l-1,5.63h-16.99Z"/>
        <path class="cls-1" d="M92.07,71.11c1.07,0,1.92,.41,2.54,1.22,.62,.82,.84,1.81,.63,2.98l-.77,4.32c-.08,.41-.27,.81-.59,1.21-.32,.4-.67,.66-1.05,.78,.33,.13,.59,.39,.78,.78,.19,.4,.25,.8,.17,1.21l-.77,4.32c-.2,1.17-.77,2.17-1.68,2.98-.92,.82-1.91,1.22-2.98,1.22h-19.55l3.71-21.05h19.55Zm-5.32,15.42l.38-2.1h-10.45l-.38,2.1h10.45Zm1.34-7.69l.38-2.1h-10.45l-.34,2.1h10.41Z"/>
        <path class="cls-1" d="M117.77,75.32l-2.22,12.63c-.2,1.17-.77,2.17-1.68,2.98-.92,.82-1.91,1.22-2.98,1.22h-15.65l.99-5.63h13.05l.38-2.1h-13.05l1-5.59h13.05l.34-2.1h-13.05l.99-5.63h15.65c1.07,0,1.92,.41,2.54,1.22,.62,.82,.84,1.81,.63,2.98Z"/>
        <path class="cls-1" d="M159.41,71.11l-2.98,16.84c-.2,1.17-.77,2.17-1.68,2.98-.92,.82-1.91,1.22-2.98,1.22h-3.33l-7.42-13.05-2.3,13.05h-6.51l2.95-16.84c.2-1.17,.77-2.17,1.68-2.98,.92-.82,1.91-1.22,2.98-1.22h3.33l7.42,13.05,2.3-13.05h6.54Z"/>
        <path class="cls-1" d="M169.78,76.73l-.34,2.1h14.01l-.99,5.59h-14.01l-.38,2.1h16.95l-.96,5.63h-19.59c-1.07,0-1.92-.41-2.54-1.22-.63-.82-.84-1.81-.63-2.98l2.22-12.63c.2-1.17,.77-2.17,1.68-2.98,.92-.82,1.91-1.22,2.98-1.22h19.59l-1,5.63h-16.99Z"/>
        <path class="cls-1" d="M226.34,71.11l-7.62,16.84c-.54,1.17-1.38,2.17-2.53,2.98-1.15,.82-2.26,1.22-3.33,1.22h-2.87l-2.26-13.05-6.85,13.05h-2.87c-1.07,0-2.04-.41-2.91-1.22-.87-.82-1.35-1.81-1.45-2.98l-1.68-16.84h6.81l1.22,12.13,6.35-12.13h5.59l2.07,12.13,5.51-12.13h6.81Z"/>
        <path class="cls-1" d="M236.13,76.73l-.38,2.1h16.99l-1.61,9.11s0,.06-.02,.1c-.01,.04-.02,.07-.02,.1-.26,1.12-.84,2.07-1.74,2.85-.91,.78-1.87,1.17-2.89,1.17h-19.55l1-5.63h16.95l.38-2.1h-16.99l1.61-9.11s0-.06,.02-.1c.01-.04,.02-.07,.02-.1,.25-1.12,.84-2.07,1.74-2.85,.91-.78,1.87-1.17,2.89-1.17h19.59l-1,5.63h-16.99Z"/>
      </g>
      <g>
        <path class="cls-1" d="M54,99.85v.92h-2.47v6.54h-1.01v-6.54h-2.47v-.92h5.96Z"/>
        <path class="cls-1" d="M58.08,107.31h-.98v-7.91h.98v2.51c.36-.2,.71-.35,1.06-.45,.35-.1,.7-.15,1.05-.15,.65,0,1.14,.16,1.47,.49,.33,.33,.49,.81,.49,1.44v4.07h-.98v-3.95c0-.4-.11-.7-.32-.89-.21-.19-.54-.28-.98-.28-.29,0-.6,.04-.91,.12-.31,.08-.61,.19-.9,.33v4.66Z"/>
        <path class="cls-1" d="M70.23,106.17v.82c-.21,.11-.51,.21-.91,.29-.4,.08-.81,.12-1.22,.12-.92,0-1.58-.24-1.97-.71-.4-.48-.59-1.26-.59-2.36s.21-1.82,.62-2.3c.41-.48,1.07-.72,1.97-.72,.84,0,1.44,.19,1.81,.56,.36,.38,.55,1,.55,1.89,0,.16,0,.31-.01,.44,0,.13-.02,.3-.05,.49h-3.9c0,.65,.14,1.11,.4,1.39,.26,.28,.7,.42,1.34,.42,.34,0,.7-.03,1.07-.1,.37-.06,.67-.14,.9-.24Zm-.64-2.53c0-.52-.12-.89-.34-1.11-.22-.22-.59-.33-1.12-.33-.59,0-1,.12-1.24,.37-.24,.25-.36,.69-.36,1.31h3.06s0-.05,0-.11c0-.06,0-.11,0-.14Z"/>
        <path class="cls-1" d="M80.96,101.32c.8,0,1.37,.24,1.72,.71,.34,.47,.52,1.24,.52,2.31s-.21,1.88-.64,2.36c-.43,.48-1.15,.71-2.15,.71-.45,0-.88-.03-1.27-.08s-.76-.13-1.08-.23v-7.7h.98v2.44c.28-.17,.58-.3,.92-.39,.33-.09,.67-.14,1.02-.14Zm1.26,3.02c0-.8-.11-1.36-.34-1.67-.23-.31-.65-.47-1.27-.47-.29,0-.57,.04-.84,.11s-.53,.18-.75,.31v3.72c.17,.05,.37,.09,.59,.11,.22,.03,.46,.04,.73,.04,.74,0,1.24-.15,1.49-.46s.39-.88,.39-1.7Z"/>
        <path class="cls-1" d="M87.64,100.41h-1.05v-1.01h1.05v1.01Zm-.04,6.9h-.98v-5.88h.98v5.88Z"/>
        <path class="cls-1" d="M93.7,109.24c-.4,0-.77-.03-1.11-.08-.35-.05-.63-.12-.85-.21v-.87c.18,.07,.45,.13,.8,.18,.35,.05,.7,.07,1.05,.07,.59,0,1.01-.12,1.24-.35,.23-.23,.34-.65,.34-1.24v-.37c-.29,.17-.61,.31-.94,.4-.33,.09-.67,.14-1.01,.14-.78,0-1.35-.22-1.68-.65-.34-.44-.51-1.15-.51-2.14s.22-1.73,.65-2.15c.43-.43,1.17-.64,2.21-.64,.37,0,.77,.02,1.2,.07,.43,.04,.78,.1,1.06,.16v4.92c0,1.03-.18,1.75-.55,2.16-.36,.41-1,.61-1.9,.61Zm.19-7.04c-.76,0-1.26,.13-1.51,.39-.25,.26-.37,.77-.37,1.52,0,.71,.11,1.21,.32,1.48,.21,.27,.62,.41,1.22,.41,.26,0,.53-.04,.81-.11,.28-.08,.55-.18,.81-.32v-3.25c-.19-.04-.39-.07-.61-.1s-.44-.04-.67-.04Z"/>
        <path class="cls-1" d="M102.24,109.24c-.4,0-.77-.03-1.11-.08-.35-.05-.63-.12-.85-.21v-.87c.18,.07,.45,.13,.8,.18,.35,.05,.7,.07,1.05,.07,.59,0,1.01-.12,1.24-.35,.23-.23,.34-.65,.34-1.24v-.37c-.29,.17-.61,.31-.94,.4-.33,.09-.67,.14-1.01,.14-.78,0-1.35-.22-1.68-.65-.34-.44-.51-1.15-.51-2.14s.22-1.73,.65-2.15c.43-.43,1.17-.64,2.21-.64,.37,0,.77,.02,1.2,.07,.43,.04,.78,.1,1.06,.16v4.92c0,1.03-.18,1.75-.55,2.16-.36,.41-1,.61-1.9,.61Zm.19-7.04c-.76,0-1.26,.13-1.51,.39-.25,.26-.37,.77-.37,1.52,0,.71,.11,1.21,.32,1.48,.21,.27,.62,.41,1.22,.41,.26,0,.53-.04,.81-.11,.28-.08,.55-.18,.81-.32v-3.25c-.19-.04-.39-.07-.61-.1s-.44-.04-.67-.04Z"/>
        <path class="cls-1" d="M112.81,106.17v.82c-.21,.11-.51,.21-.91,.29-.4,.08-.81,.12-1.22,.12-.92,0-1.58-.24-1.97-.71-.4-.48-.59-1.26-.59-2.36s.21-1.82,.62-2.3c.41-.48,1.07-.72,1.97-.72,.84,0,1.44,.19,1.81,.56,.36,.38,.55,1,.55,1.89,0,.16,0,.31-.01,.44,0,.13-.02,.3-.05,.49h-3.9c0,.65,.14,1.11,.4,1.39,.26,.28,.7,.42,1.34,.42,.34,0,.7-.03,1.07-.1,.37-.06,.67-.14,.9-.24Zm-.64-2.53c0-.52-.12-.89-.34-1.11s-.59-.33-1.12-.33c-.59,0-1,.12-1.24,.37-.24,.25-.36,.69-.36,1.31h3.06s0-.05,0-.11c0-.06,0-.11,0-.14Z"/>
        <path class="cls-1" d="M118.48,102.2c-.51,0-.86,.06-1.05,.18-.19,.12-.29,.36-.29,.73,0,.19,.05,.33,.14,.43,.09,.1,.24,.16,.43,.2l1.51,.23c.48,.07,.81,.22,1,.45,.19,.23,.29,.58,.29,1.06,0,.68-.16,1.18-.49,1.48s-.86,.46-1.62,.46c-.45,0-.87-.02-1.26-.07-.39-.05-.71-.11-.96-.19v-.92c.25,.08,.56,.14,.93,.2s.75,.08,1.14,.08c.49,0,.83-.07,1.01-.21,.18-.14,.27-.4,.27-.76,0-.23-.05-.4-.15-.51-.1-.11-.29-.18-.56-.22l-1.51-.23c-.38-.06-.66-.2-.85-.44-.19-.24-.28-.58-.29-1.03,0-.62,.18-1.07,.55-1.36,.37-.29,.94-.43,1.71-.43,.32,0,.6,0,.86,.02,.26,.02,.53,.05,.81,.1v.87c-.21-.03-.45-.06-.73-.08-.28-.02-.57-.03-.89-.03Z"/>
        <path class="cls-1" d="M127.21,106.39v.82c-.13,.06-.3,.1-.52,.14s-.43,.05-.62,.05c-.71,0-1.22-.16-1.53-.48-.31-.32-.46-.86-.46-1.64v-3.02h-.88v-.83h.89l.15-1.43h.81v1.43h2.09v.83h-2.09v2.99c0,.48,.09,.81,.27,.99,.18,.17,.49,.26,.95,.26,.14,0,.31-.01,.49-.04s.33-.05,.45-.07Z"/>
        <path class="cls-1" d="M135.47,107.31h-.98v-5.88h.84l.05,.57h.04c.32-.24,.65-.41,.99-.52,.34-.11,.73-.17,1.16-.17,.65,0,1.14,.16,1.48,.49,.34,.33,.51,.81,.51,1.44v4.07h-.98v-3.95c0-.4-.11-.69-.33-.88-.22-.19-.56-.29-1.02-.29-.29,0-.58,.05-.87,.14-.3,.09-.59,.22-.89,.4v4.58Z"/>
        <path class="cls-1" d="M147.63,106.17v.82c-.21,.11-.51,.21-.91,.29-.4,.08-.81,.12-1.22,.12-.92,0-1.58-.24-1.97-.71-.4-.48-.59-1.26-.59-2.36s.21-1.82,.62-2.3c.41-.48,1.07-.72,1.97-.72,.84,0,1.44,.19,1.81,.56,.36,.38,.55,1,.55,1.89,0,.16,0,.31-.01,.44,0,.13-.02,.3-.05,.49h-3.9c0,.65,.14,1.11,.4,1.39,.26,.28,.7,.42,1.34,.42,.34,0,.7-.03,1.07-.1,.37-.06,.67-.14,.9-.24Zm-.64-2.53c0-.52-.12-.89-.34-1.11s-.59-.33-1.12-.33c-.59,0-1,.12-1.24,.37-.24,.25-.36,.69-.36,1.31h3.06s0-.05,0-.11c0-.06,0-.11,0-.14Z"/>
        <path class="cls-1" d="M157.62,101.43h1.06l-1.63,5.88h-1.14l-1.28-4.58-1.2,4.58h-1.14l-1.63-5.88h1.07l1.14,4.96,1.27-4.96h.98l1.36,4.96,1.15-4.96Z"/>
        <path class="cls-1" d="M163.78,102.2c-.51,0-.86,.06-1.05,.18-.19,.12-.29,.36-.29,.73,0,.19,.05,.33,.14,.43,.09,.1,.24,.16,.43,.2l1.51,.23c.48,.07,.81,.22,1,.45s.29,.58,.29,1.06c0,.68-.16,1.18-.49,1.48s-.86,.46-1.62,.46c-.45,0-.87-.02-1.26-.07-.39-.05-.71-.11-.96-.19v-.92c.25,.08,.56,.14,.93,.2s.75,.08,1.14,.08c.49,0,.83-.07,1.01-.21,.18-.14,.27-.4,.27-.76,0-.23-.05-.4-.15-.51-.1-.11-.29-.18-.56-.22l-1.51-.23c-.38-.06-.66-.2-.85-.44-.19-.24-.28-.58-.29-1.03,0-.62,.18-1.07,.55-1.36,.37-.29,.94-.43,1.71-.43,.32,0,.6,0,.86,.02,.26,.02,.53,.05,.81,.1v.87c-.21-.03-.45-.06-.73-.08-.28-.02-.58-.03-.89-.03Z"/>
        <path class="cls-1" d="M174.3,100.41h-1.05v-1.01h1.05v1.01Zm-.04,6.9h-.98v-5.88h.98v5.88Z"/>
        <path class="cls-1" d="M178.95,107.31h-.98v-5.88h.84l.05,.57h.04c.32-.24,.65-.41,.99-.52,.34-.11,.73-.17,1.16-.17,.65,0,1.14,.16,1.48,.49,.34,.33,.51,.81,.51,1.44v4.07h-.98v-3.95c0-.4-.11-.69-.33-.88-.22-.19-.56-.29-1.02-.29-.29,0-.58,.05-.87,.14-.3,.09-.59,.22-.89,.4v4.58Z"/>
        <path class="cls-1" d="M194.13,106.39v.82c-.13,.06-.3,.1-.52,.14s-.43,.05-.62,.05c-.71,0-1.22-.16-1.53-.48s-.46-.86-.46-1.64v-3.02h-.88v-.83h.89l.15-1.43h.81v1.43h2.09v.83h-2.09v2.99c0,.48,.09,.81,.27,.99,.18,.17,.49,.26,.95,.26,.14,0,.31-.01,.49-.04,.19-.02,.33-.05,.45-.07Z"/>
        <path class="cls-1" d="M198.21,107.31h-.98v-7.91h.98v2.51c.36-.2,.71-.35,1.06-.45,.35-.1,.7-.15,1.05-.15,.65,0,1.14,.16,1.47,.49,.33,.33,.49,.81,.49,1.44v4.07h-.98v-3.95c0-.4-.11-.7-.32-.89-.21-.19-.54-.28-.98-.28-.29,0-.6,.04-.91,.12-.31,.08-.61,.19-.9,.33v4.66Z"/>
        <path class="cls-1" d="M210.37,106.17v.82c-.21,.11-.51,.21-.91,.29-.4,.08-.81,.12-1.22,.12-.92,0-1.58-.24-1.97-.71-.4-.48-.59-1.26-.59-2.36s.21-1.82,.62-2.3c.41-.48,1.07-.72,1.97-.72,.84,0,1.44,.19,1.81,.56,.36,.38,.55,1,.55,1.89,0,.16,0,.31-.01,.44,0,.13-.02,.3-.05,.49h-3.9c0,.65,.14,1.11,.4,1.39,.26,.28,.7,.42,1.34,.42,.34,0,.7-.03,1.07-.1,.37-.06,.67-.14,.9-.24Zm-.64-2.53c0-.52-.12-.89-.34-1.11-.22-.22-.59-.33-1.12-.33-.59,0-1,.12-1.24,.37-.24,.25-.36,.69-.36,1.31h3.06s0-.05,0-.11c0-.06,0-.11,0-.14Z"/>
        <path class="cls-1" d="M220.22,102.2c-.51,0-.86,.06-1.05,.18-.19,.12-.29,.36-.29,.73,0,.19,.05,.33,.14,.43,.09,.1,.24,.16,.43,.2l1.51,.23c.48,.07,.81,.22,1,.45s.29,.58,.29,1.06c0,.68-.16,1.18-.49,1.48s-.86,.46-1.62,.46c-.45,0-.87-.02-1.26-.07-.39-.05-.71-.11-.96-.19v-.92c.25,.08,.56,.14,.93,.2s.75,.08,1.14,.08c.49,0,.83-.07,1.01-.21,.18-.14,.27-.4,.27-.76,0-.23-.05-.4-.15-.51-.1-.11-.29-.18-.56-.22l-1.51-.23c-.38-.06-.66-.2-.85-.44-.19-.24-.28-.58-.29-1.03,0-.62,.18-1.07,.55-1.36,.37-.29,.94-.43,1.71-.43,.32,0,.6,0,.86,.02,.26,.02,.53,.05,.81,.1v.87c-.21-.03-.45-.06-.73-.08-.28-.02-.58-.03-.89-.03Z"/>
        <path class="cls-1" d="M226.53,109.12h-.98v-7.68h.84l.06,.52h.04c.25-.21,.54-.36,.88-.48,.34-.11,.71-.17,1.09-.17,.8,0,1.37,.24,1.72,.71,.34,.48,.52,1.25,.52,2.33s-.21,1.86-.63,2.33c-.42,.48-1.12,.71-2.11,.71-.29,0-.56-.02-.8-.06-.24-.04-.45-.1-.64-.18v1.95Zm3.2-4.76c0-.81-.11-1.37-.34-1.69s-.65-.48-1.27-.48c-.29,0-.57,.04-.84,.12-.27,.08-.52,.2-.76,.36v3.58c.2,.08,.4,.14,.61,.18,.21,.04,.45,.06,.71,.06,.74,0,1.24-.15,1.49-.46s.39-.87,.39-1.68Z"/>
        <path class="cls-1" d="M235.47,107.41c-.6,0-1.04-.14-1.33-.43-.28-.29-.42-.75-.42-1.37s.17-1.08,.51-1.35c.34-.27,.92-.4,1.74-.4,.27,0,.54,.01,.8,.04,.26,.02,.51,.06,.74,.11v-.57c0-.44-.11-.75-.33-.94-.22-.19-.58-.29-1.07-.29-.36,0-.69,.01-.96,.04-.28,.03-.56,.07-.83,.14v-.84c.32-.08,.64-.13,.97-.17,.33-.03,.7-.05,1.12-.05,.71,0,1.23,.16,1.57,.49s.51,.84,.51,1.53v3.97h-.89l-.05-.55h-.02c-.24,.19-.55,.34-.92,.46-.38,.12-.75,.18-1.12,.18Zm.61-2.76c-.54,0-.91,.07-1.12,.2-.21,.13-.32,.36-.32,.7s.09,.6,.26,.76c.17,.15,.46,.23,.86,.23,.31,0,.63-.05,.95-.14,.32-.09,.59-.21,.8-.36v-1.26c-.26-.04-.51-.07-.73-.09s-.46-.03-.7-.03Z"/>
        <path class="cls-1" d="M246.24,106.14v.82c-.2,.13-.49,.23-.89,.32-.39,.08-.8,.12-1.23,.12-.83,0-1.42-.23-1.75-.68-.34-.45-.51-1.24-.51-2.37s.22-1.89,.65-2.35c.44-.46,1.18-.7,2.22-.7,.23,0,.44,0,.62,.02,.19,.01,.43,.04,.72,.08v.87c-.29-.04-.53-.06-.72-.07-.19,0-.39-.01-.62-.01-.75,0-1.25,.15-1.51,.46-.26,.31-.39,.87-.39,1.71s.1,1.4,.31,1.7,.6,.45,1.19,.45c.32,0,.66-.03,1.01-.1,.35-.07,.65-.15,.89-.26Z"/>
        <path class="cls-1" d="M253.87,106.17v.82c-.21,.11-.51,.21-.91,.29-.4,.08-.81,.12-1.22,.12-.92,0-1.58-.24-1.97-.71-.4-.48-.59-1.26-.59-2.36s.21-1.82,.62-2.3c.41-.48,1.07-.72,1.97-.72,.84,0,1.44,.19,1.81,.56,.36,.38,.55,1,.55,1.89,0,.16,0,.31-.01,.44,0,.13-.02,.3-.05,.49h-3.9c0,.65,.14,1.11,.4,1.39,.26,.28,.7,.42,1.34,.42,.34,0,.7-.03,1.07-.1,.37-.06,.67-.14,.9-.24Zm-.64-2.53c0-.52-.12-.89-.34-1.11s-.59-.33-1.12-.33c-.59,0-1,.12-1.24,.37-.24,.25-.36,.69-.36,1.31h3.06s0-.05,0-.11c0-.06,0-.11,0-.14Z"/>
      </g>
      <rect class="cls-1" x="9.06" y="101.45" width="32.04" height="1.3"/>
      <path class="cls-1" d="M73.56,47.03c0-.07,.02-.16,.05-.26,.03-.11,.05-.19,.05-.26l4.44-25.16H31.18l1.06-5.81h46.93l2.75-15.54H27.8c-2.82,0-5.48,1.08-7.98,3.22-2.5,2.15-4.11,4.77-4.81,7.87,0,.07-.02,.16-.05,.26-.04,.11-.05,.2-.05,.26l-4.44,25.16H57.39l-1.06,5.81H9.51l-2.18,12.33,64.04-2.9c1.04-1.5,1.78-3.16,2.19-5Z"/>
      <path class="cls-1" d="M128.63,22.09l4.7,27.14,24.81-1.12c.3-.52,.58-1.05,.83-1.6L180,0h-18.81l-15.22,33.51L140.26,0h-15.43l-17.55,33.51L103.9,0h-18.81l4.65,46.51c.15,1.68,.58,3.22,1.29,4.64l22.9-1.04,14.71-28.02Z"/>
      <polygon class="cls-1" points="199.24 0 181.27 0 172.9 47.44 191.01 46.62 199.24 0"/>
      <path class="cls-1" d="M213.4,38.79h36.04c2.96,0,5.69-1.13,8.19-3.38,2.5-2.25,4.03-5,4.6-8.24l2.75-15.54c.56-3.24-.02-5.99-1.74-8.24-1.73-2.25-4.07-3.38-7.03-3.38h-54.01l-8.2,46.49,18.16-.82,1.24-6.88Zm4.02-23.25h28.86l-1.37,7.72h-28.86l1.37-7.72Z"/>
      <path class="cls-1" d="M283.58,36.78h38.68l2.75-15.43h-38.68l.95-5.81h46.93l2.75-15.54h-54.12c-2.96,0-5.71,1.13-8.24,3.38-2.54,2.26-4.09,5-4.65,8.24l-5.57,31.68,18.17-.82,1.04-5.7Z"/>
      <path class="cls-2" d="M261.33,49.71l5.95-2.96L0,58.83v5.87l263.32-3.45-3.5-7.04c-.83-1.66-.15-3.68,1.51-4.51Z"/>
      <path class="cls-2" d="M281.84,53.44c.47-.23,.98-.35,1.5-.35,.36,0,.72,.06,1.07,.17,.85,.28,1.54,.89,1.94,1.69l.37,.75,4.47-2.22c.47-.23,.98-.35,1.5-.35,.36,0,.72,.06,1.07,.17,.85,.28,1.54,.89,1.94,1.69l.36,.73,4.47-2.23c.47-.23,.98-.35,1.5-.35,.36,0,.72,.06,1.07,.17,.85,.28,1.54,.89,1.94,1.69l.36,.73,4.43-2.21c.47-.23,.98-.35,1.5-.35,.36,0,.72,.06,1.07,.17,.85,.28,1.54,.89,1.94,1.69l2.74,5.51,11-.14,4.95-16.63-55.68,2.52,3.74,7.51,.74-.37Z"/>
      <path class="cls-2" d="M290.79,71.36c1.24-.62,2.44-1.21,3.7-1.84-1.22-2.45-2.44-4.91-3.7-7.44,1.3-.65,2.53-1.26,3.76-1.87-.61-1.23-1.22-2.46-1.85-3.72-2.54,1.26-5,2.49-7.46,3.71,1.85,3.71,3.69,7.42,5.56,11.17Z"/>
      <path class="cls-2" d="M300.13,71.38c1.24-.62,2.44-1.21,3.7-1.84-1.22-2.45-2.44-4.91-3.7-7.44,1.3-.65,2.53-1.26,3.76-1.87-.61-1.23-1.22-2.46-1.85-3.72-2.54,1.26-5,2.49-7.46,3.71,1.85,3.71,3.69,7.42,5.56,11.17Z"/>
      <path class="cls-2" d="M318.79,90.13c1.23-.61,2.46-1.22,3.72-1.85-1.26-2.54-2.49-5-3.71-7.46-1.22,.61-2.43,1.21-3.72,1.85,1.25,2.51,2.48,4.99,3.71,7.46Z"/>
      <path class="cls-2" d="M316.91,95.72c-6.27,3.12-12.46,6.2-18.71,9.31-.61-1.23-1.21-2.43-1.85-3.71-1.27,.63-2.51,1.25-3.74,1.86,1.24,2.49,2.47,4.98,3.71,7.48,8.73-4.34,17.46-8.69,26.18-13.03-1.24-2.49-2.49-4.98-3.73-7.46-1.22,.61-2.43,1.21-3.71,1.85,.62,1.25,1.23,2.47,1.85,3.71Z"/>
      <path class="cls-2" d="M277.66,82.58c.63,1.26,1.23,2.47,1.85,3.73,1.26-.63,2.46-1.23,3.72-1.85-4.93-9.92-9.88-19.85-14.84-29.83,1.28-.63,2.49-1.24,3.77-1.88,3.7,7.43,7.4,14.88,11.12,22.36,1.26-.63,2.46-1.22,3.72-1.85-1.84-3.7-3.68-7.4-5.57-11.18,1.3-.64,2.53-1.26,3.76-1.87-.61-1.23-1.23-2.46-1.86-3.74-1.28,.64-2.48,1.23-3.75,1.86-1.87-3.75-3.71-7.46-5.56-11.17-3.76,1.87-7.45,3.71-11.21,5.58,4.34,8.73,8.67,17.42,13.01,26.15-1.29,.64-2.5,1.25-3.72,1.85,.61,1.22,1.21,2.43,1.84,3.69,1.24-.62,2.44-1.21,3.71-1.84Z"/>
      <path class="cls-2" d="M311.34,56.54c-2.5,1.24-4.96,2.47-7.42,3.69,.6,1.22,1.21,2.43,1.85,3.71,1.25-.62,2.46-1.23,3.74-1.86,3.12,6.28,6.22,12.49,9.31,18.7,1.23-.61,2.46-1.22,3.68-1.83-3.74-7.51-7.44-14.95-11.15-22.42Z"/>
      <path class="cls-2" d="M272.09,80.71c-.61-1.23-1.22-2.46-1.84-3.69-2.52,1.26-4.97,2.47-7.43,3.7,1.86,3.73,3.7,7.43,5.56,11.17,1.25-.62,2.47-1.23,3.69-1.83-1.23-2.47-2.46-4.94-3.72-7.48,1.28-.64,2.51-1.25,3.74-1.86Z"/>
      <path class="cls-2" d="M277.7,91.94c1.23,2.47,2.46,4.95,3.71,7.46,1.29-.64,2.5-1.25,3.72-1.85-1.22-2.46-2.45-4.92-3.71-7.46-1.26,.63-2.49,1.24-3.72,1.85Z"/>
      <path class="cls-2" d="M285.16,97.56c1.23,2.47,2.46,4.95,3.71,7.46,1.29-.64,2.51-1.25,3.72-1.85-1.22-2.46-2.45-4.92-3.71-7.46-1.26,.63-2.49,1.24-3.72,1.85Z"/>
      <path class="cls-2" d="M272.09,90.06c.61,1.23,1.22,2.46,1.85,3.72,1.29-.64,2.51-1.25,3.72-1.85-.6-1.22-1.21-2.43-1.85-3.72-1.26,.63-2.49,1.24-3.72,1.85Z"/>
    </g>
  </g>
</svg>