<svg id="Capa_1" data-name="Capa 1" xmlns="http://www.w3.org/2000/svg" viewBox="0 0 822.02 456.56"><defs><style>.cls-1{font-size:23px;}.cls-1,.cls-6{font-family:OpenSans-ExtraBold, Open Sans;font-weight:800;}.cls-2,.cls-4,.cls-5{fill:none;stroke-miterlimit:10;}.cls-2{stroke:#000;stroke-width:4.44px;}.cls-3,.cls-6{fill:#e02310;}.cls-4,.cls-5{stroke:#e02310;stroke-width:1.11px;}.cls-5{stroke-dasharray:3.17 3.17;}.cls-6{font-size:16px;}</style></defs><text class="cls-1" transform="translate(662.43 305.81)">GO-TO<tspan x="0" y="27.6">MARKET</tspan></text><text class="cls-1" transform="translate(86.57 94.78)">YOUR<tspan x="12.36" y="27.6">IDEA</tspan></text><path class="cls-2" d="M130.2,143.48h46.09a26.33,26.33,0,0,1,26.32,26.33V282.67A26.33,26.33,0,0,0,228.93,309h49.33a26.33,26.33,0,0,0,26.32-26.33V169.81a26.33,26.33,0,0,1,26.32-26.33h49.56a26.32,26.32,0,0,1,26.32,26.33V282.67A26.33,26.33,0,0,0,433.11,309h48.56A26.33,26.33,0,0,0,508,282.67V169.81a26.32,26.32,0,0,1,26.32-26.33h48.23a26.33,26.33,0,0,1,26.33,26.33v68.34a26.32,26.32,0,0,0,26.32,26.33h70"/><polygon class="cls-3" points="202.79 244.98 193.14 250.49 193.09 261.6 202.68 267.2 212.28 261.69 212.38 250.58 202.79 244.98"/><polygon class="cls-3" points="355.39 132.38 345.74 137.88 345.69 148.99 355.28 154.59 364.88 149.09 364.98 137.98 355.39 132.38"/><polygon class="cls-3" points="458.42 297.89 448.77 303.4 448.72 314.51 458.32 320.11 467.91 314.6 468.02 303.49 458.42 297.89"/><polygon class="cls-3" points="608.54 177.52 598.89 183.02 598.84 194.13 608.43 199.73 618.02 194.23 618.13 183.12 608.54 177.52"/><line class="cls-4" x1="146.53" y1="256.09" x2="148.2" y2="256.09"/><line class="cls-5" x1="151.36" y1="256.09" x2="194.11" y2="256.09"/><line class="cls-4" x1="195.69" y1="256.09" x2="197.35" y2="256.09"/><line class="cls-4" x1="355.32" y1="147.52" x2="355.32" y2="145.85"/><line class="cls-5" x1="355.32" y1="142.68" x2="355.32" y2="99.94"/><line class="cls-4" x1="355.32" y1="98.36" x2="355.32" y2="96.69"/><line class="cls-4" x1="458.36" y1="357.64" x2="458.36" y2="355.97"/><line class="cls-5" x1="458.36" y1="352.8" x2="458.36" y2="310.06"/><line class="cls-4" x1="458.36" y1="308.48" x2="458.36" y2="306.81"/><line class="cls-4" x1="612.63" y1="188.46" x2="614.3" y2="188.46"/><line class="cls-5" x1="617.47" y1="188.46" x2="660.21" y2="188.46"/><line class="cls-4" x1="661.79" y1="188.46" x2="663.46" y2="188.46"/><circle cx="146.99" cy="256.09" r="1.91"/><circle cx="355.51" cy="96.69" r="1.91"/><circle cx="130.2" cy="143.48" r="5.68"/><circle cx="708.51" cy="264.71" r="5.68"/><circle cx="663.46" cy="188.08" r="1.91"/><circle cx="458.36" cy="355.72" r="1.91"/><text class="cls-6" transform="translate(624.92 156.84)">STRESS TEST<tspan x="0" y="19.2">BUSINESS MODEL</tspan></text><text class="cls-6" transform="translate(362.8 83.08)">ESTABLISH BRAND<tspan x="0" y="19.2">IDENTITY</tspan></text><text class="cls-6" transform="translate(321.69 363.64)">WEB3 BUSINESS<tspan x="83.63" y="19.2">PLAN</tspan></text><text class="cls-6" transform="translate(56.6 280.03)">PRE-PLANNING<tspan x="72.36" y="19.2">STAGE</tspan></text></svg>