<svg id="Capa_1" data-name="Capa 1" xmlns="http://www.w3.org/2000/svg" viewBox="0 0 836.3 360.4"><defs><style>.cls-1{font-size:23px;}.cls-1,.cls-2{font-family:OpenSans-ExtraBold, Open Sans;font-weight:800;}.cls-2{font-size:16px;}.cls-2,.cls-4{fill:#e02310;}.cls-3,.cls-5,.cls-6{fill:none;stroke-miterlimit:10;}.cls-3{stroke:#000;stroke-width:6.51px;}.cls-5,.cls-6{stroke:#e02310;stroke-width:1.63px;}.cls-6{stroke-dasharray:4.64 4.64;}</style></defs><text class="cls-1" transform="translate(748.97 168.59)">OG</text><text class="cls-1" transform="translate(51.98 215.79)">ROOKIE</text><text class="cls-2" transform="translate(360.62 284.66)">WEB3<tspan x="-44.54" y="19.2">FUNDAMENTALS</tspan></text><text class="cls-2" transform="translate(211.91 65.89)">METAVERSE<tspan x="-11.02" y="19.2">EXPLORATION</tspan></text><text class="cls-2" transform="translate(559.53 285.22)">CERTIFICATION</text><text class="cls-2" transform="translate(444.49 65.89)">WEB3 + AI IN<tspan x="12.61" y="19.2">BUSINESS</tspan></text><circle cx="739.51" cy="177.86" r="8.33"/><circle cx="145.19" cy="177.86" r="8.33"/><line class="cls-3" x1="739.51" y1="177.86" x2="145.19" y2="177.86"/><polygon class="cls-4" points="636.78 178.05 628.71 163.91 612.44 163.84 604.23 177.89 612.3 191.95 628.58 192.1 636.78 178.05"/><line class="cls-5" x1="620.76" y1="184.05" x2="620.76" y2="186.5"/><line class="cls-6" x1="620.76" y1="191.13" x2="620.76" y2="253.75"/><line class="cls-5" x1="620.76" y1="256.07" x2="620.76" y2="258.51"/><circle cx="621.3" cy="258.51" r="2.8"/><polygon class="cls-4" points="480.37 177.26 488.37 191.44 504.64 191.59 512.92 177.58 504.92 163.48 488.64 163.25 480.37 177.26"/><line class="cls-5" x1="496.42" y1="171.33" x2="496.44" y2="168.89"/><line class="cls-6" x1="496.46" y1="164.26" x2="496.76" y2="101.64"/><line class="cls-5" x1="496.77" y1="99.32" x2="496.78" y2="96.88"/><circle cx="496.24" cy="96.87" r="2.8"/><polygon class="cls-4" points="398.68 178.05 390.61 163.91 374.33 163.84 366.12 177.89 374.19 191.95 390.47 192.1 398.68 178.05"/><line class="cls-5" x1="382.65" y1="184.05" x2="382.65" y2="186.5"/><line class="cls-6" x1="382.65" y1="191.13" x2="382.65" y2="253.75"/><line class="cls-5" x1="382.65" y1="256.07" x2="382.65" y2="258.51"/><circle cx="383.19" cy="258.51" r="2.8"/><polygon class="cls-4" points="242.26 177.26 250.26 191.44 266.54 191.59 274.81 177.58 266.81 163.48 250.53 163.25 242.26 177.26"/><line class="cls-5" x1="258.32" y1="171.33" x2="258.33" y2="168.89"/><line class="cls-6" x1="258.35" y1="164.26" x2="258.65" y2="101.64"/><line class="cls-5" x1="258.66" y1="99.32" x2="258.68" y2="96.88"/><circle cx="258.13" cy="96.87" r="2.8"/></svg>